<?xml version="1.0" encoding="iso-8859-1"?>
<!-- Uploaded to: SVG Repo, www.svgrepo.com, Generator: SVG Repo Mixer Tools -->
<!DOCTYPE svg PUBLIC "-//W3C//DTD SVG 1.1//EN" "http://www.w3.org/Graphics/SVG/1.1/DTD/svg11.dtd">
<svg fill="#000000" version="1.1" id="Capa_1" xmlns="http://www.w3.org/2000/svg" xmlns:xlink="http://www.w3.org/1999/xlink" 
	 width="800px" height="800px" viewBox="0 0 67.282 67.282"
	 xml:space="preserve">
<g>
	<path d="M3.12,67.282h61.042c0-9.261-4.175-17.498-10.693-23.093c1.382-1.853,2.527-3.908,3.359-6.137
		c2.74-0.13,4.938-3.031,4.938-6.572c0-2.701-1.307-5.018-3.225-5.984c0.333-4.337-0.179-10.332-3.979-14.873
		c-3.075-3.682-7.65-6.084-11.533-6.615c-0.146-0.328-0.314-0.624-0.493-0.881C38.454-2.625,23.338-0.06,15.283,7.69
		c-6.274,6.025-7.017,13.001-6.479,17.766c-1.948,0.95-3.287,3.292-3.287,6.022c0,3.544,2.198,6.446,4.943,6.57
		c0.832,2.23,1.98,4.283,3.359,6.136C7.294,49.784,3.12,58.021,3.12,67.282z M11.879,36.789l-0.236-0.685l-0.72,0.097
		c-0.159,0.018-0.292,0.065-0.278,0.093c-1.861,0-3.37-2.158-3.37-4.813c0-1.801,0.722-3.367,1.81-4.161
		c0.474,2.354,1.167,3.845,1.306,3.807c-0.399-0.651,4.527-10.953,22.072-7.699c5.046,0.932,8.277-2.076,10.003-6.113
		c0.226,0.064,0.432,0.136,0.666,0.192c11.645,2.696,14.643,13.221,14.298,13.62c0.101,0.042,0.57-1.431,0.895-3.68
		C59.331,28.278,60,29.796,60,31.485c0,2.655-1.51,4.815-3.275,4.815c-0.082-0.031-0.21-0.082-0.374-0.1l-0.716-0.097L55.4,36.789
		c-0.775,2.288-1.896,4.389-3.273,6.267c-0.492,0.663-1.021,1.302-1.585,1.904c-0.096,0.104-0.191,0.205-0.292,0.306
		c-1.12,1.177-2.368,2.23-3.709,3.147c-0.13,0.087-0.253,0.169-0.388,0.256c-0.671,0.44-1.355,0.849-2.071,1.218
		c-0.007,0-0.007,0.003-0.012,0.005c-0.712,0.36-1.455,0.68-2.201,0.97c-0.166,0.062-0.34,0.125-0.506,0.185
		c-0.737,0.265-1.499,0.507-2.271,0.698c-0.014,0.002-0.029,0.007-0.045,0.009c-0.776,0.189-1.574,0.328-2.377,0.434
		c-0.196,0.027-0.393,0.048-0.589,0.068c-0.814,0.087-1.629,0.146-2.458,0.146c-0.83,0-1.645-0.057-2.458-0.146
		c-0.196-0.022-0.393-0.046-0.588-0.068c-0.803-0.105-1.601-0.244-2.376-0.434c-0.016-0.002-0.03-0.009-0.044-0.012
		c-0.771-0.188-1.522-0.431-2.268-0.695c-0.167-0.06-0.338-0.123-0.507-0.185c-0.747-0.29-1.49-0.609-2.198-0.97
		c-0.004-0.002-0.009-0.005-0.014-0.007c-0.715-0.365-1.399-0.777-2.068-1.216c-0.132-0.087-0.259-0.169-0.388-0.253
		c-1.345-0.92-2.585-1.974-3.716-3.159c-0.094-0.096-0.185-0.192-0.276-0.292c-0.56-0.611-1.099-1.246-1.594-1.916l0,0
		C13.767,41.173,12.655,39.072,11.879,36.789z M26.518,44.638c1.672,1.12,4.225,1.852,7.122,1.852c2.891,0,5.444-0.728,7.123-1.852
		c-1.154,1.77-3.905,3.018-7.123,3.018C30.421,47.656,27.667,46.408,26.518,44.638z M20.744,31.127c0-1.572,1.277-2.849,2.855-2.849
		c1.569,0,2.847,1.277,2.847,2.849c0,1.575-1.277,2.853-2.847,2.853C22.019,33.979,20.744,32.702,20.744,31.127z M40.827,31.127
		c0-1.572,1.277-2.849,2.851-2.849c1.574,0,2.852,1.277,2.852,2.849c0,1.575-1.277,2.853-2.852,2.853
		C42.104,33.979,40.827,32.702,40.827,31.127z"/>
</g>
</svg>