<?xml version="1.0" ?>
<!-- Uploaded to: SVG Repo, www.svgrepo.com, Generator: SVG Repo Mixer Tools -->
<svg width="800px" height="800px" viewBox="0 0 64 64" xmlns="http://www.w3.org/2000/svg">
<defs>
<style>.cls-1{fill:none;stroke:#000000;stroke-linejoin:round;stroke-width:2px;}</style>
</defs>
<title/>
<g data-name="Layer 11" id="Layer_11">
<rect class="cls-1" height="4" width="60" x="2" y="58"/>
<polyline class="cls-1" points="4 58 4 2 34 2 34 58"/>
<line class="cls-1" x1="4" x2="34" y1="12" y2="12"/>
<line class="cls-1" x1="19" x2="19" y1="2" y2="12"/>
<line class="cls-1" x1="4" x2="34" y1="22" y2="22"/>
<line class="cls-1" x1="19" x2="19" y1="12" y2="22"/>
<line class="cls-1" x1="4" x2="34" y1="32" y2="32"/>
<line class="cls-1" x1="19" x2="19" y1="22" y2="32"/>
<path class="cls-1" d="M14,58V53a5,5,0,0,1,5-5h0a5,5,0,0,1,5,5v5"/>
<line class="cls-1" x1="7" x2="11" y1="9" y2="5"/>
<line class="cls-1" x1="12" x2="16" y1="9" y2="5"/>
<line class="cls-1" x1="27" x2="31" y1="9" y2="5"/>
<line class="cls-1" x1="27" x2="31" y1="19" y2="15"/>
<line class="cls-1" x1="27" x2="31" y1="29" y2="25"/>
<line class="cls-1" x1="22" x2="26" y1="9" y2="5"/>
<line class="cls-1" x1="22" x2="26" y1="19" y2="15"/>
<line class="cls-1" x1="22" x2="26" y1="29" y2="25"/>
<line class="cls-1" x1="7" x2="11" y1="29" y2="25"/>
<line class="cls-1" x1="12" x2="16" y1="29" y2="25"/>
<line class="cls-1" x1="4" x2="34" y1="42" y2="42"/>
<line class="cls-1" x1="19" x2="19" y1="32" y2="42"/>
<line class="cls-1" x1="27" x2="31" y1="39" y2="35"/>
<line class="cls-1" x1="22" x2="26" y1="39" y2="35"/>
<line class="cls-1" x1="7" x2="11" y1="39" y2="35"/>
<line class="cls-1" x1="12" x2="16" y1="39" y2="35"/>
<line class="cls-1" x1="7" x2="11" y1="19" y2="15"/>
<line class="cls-1" x1="12" x2="16" y1="19" y2="15"/>
<rect class="cls-1" height="36" width="24" x="34" y="22"/>
<rect class="cls-1" height="6" width="6" x="38" y="26"/>
<rect class="cls-1" height="6" width="6" x="48" y="26"/>
<rect class="cls-1" height="6" width="6" x="38" y="36"/>
<rect class="cls-1" height="6" width="6" x="48" y="36"/>
<polyline class="cls-1" points="38 58 38 47 54 47 54 58"/>
<line class="cls-1" x1="46" x2="46" y1="47" y2="58"/>
<rect class="cls-1" height="6" width="18" x="38" y="12"/>
<line class="cls-1" x1="40" x2="40" y1="18" y2="22"/>
<line class="cls-1" x1="54" x2="54" y1="18" y2="22"/>
</g>
</svg>